<svg xmlns="http://www.w3.org/2000/svg" width="600" height="110" viewBox="0 0 600 110">
<g fill="#f6fbff">
<rect x="231.629" y="0.174" width="11.482" height="48.138"/>
<path d="M283.882,0h-14.334l-21.846,48.419h11.8l4.304-9.218h25.845l4.309,9.218h12.394L283.882,0z M267.228,30.465
    l9.609-21.767l9.684,21.767H267.228z"/>
<path d="M414.67,0h-14.336l-21.846,48.419h11.804l4.303-9.218h25.846l4.303,9.218h12.397L414.67,0z M398.02,30.465
    l9.606-21.767l9.687,21.767H398.02z"/>
<polygon points="546.5,0.118 498.978,0.118 498.978,8.772 517.006,8.772 517.006,48.364 528.484,48.364
    528.484,8.772 546.5,8.772"/>
<polygon points="600,8.726 600,0.071 564.296,0.071 553.119,0.071 553.119,8.726 553.119,39.655 553.119,48.127
    553.119,48.312 600,48.312 600,39.655 564.296,39.655 564.296,28.428 594.263,28.428 594.263,19.772 564.296,19.772 564.296,8.726"/>
<polygon points="482.36,0.131 482.36,39.417 458.234,0.131 441.538,0.131 441.538,48.312 451.422,48.312
    451.422,8.774 475.345,48.312 492.25,48.312 492.25,0.131"/>
<polygon points="355.358,0.051 342.05,36.619 328.101,0.051 310.149,0.051 310.149,48.284 320.359,48.284
    320.359,8.78 335.836,48.284 347.429,48.284 363.256,8.31 363.256,48.196 373.464,48.196 373.464,0.051 "/>

<polygon points="339.804,70.336 339.804,61.682 304.099,61.682 292.917,61.682 292.917,70.336 292.917,101.266
    292.917,109.736 292.917,109.922 339.804,109.922 339.804,101.266 304.099,101.266 304.099,90.036 334.058,90.036 334.058,81.384
    304.099,81.384 304.099,70.336     "/>
<polygon points="433.932,86.072 455.815,61.655 443.501,61.655 425.33,81.295 415.148,81.295 415.148,61.655
    404.747,61.655 404.747,109.895 415.148,109.895 415.148,89.889 424.03,89.889 443.501,109.895 456.618,109.895     "/>
<path d="M394.246,85.515c-1.399-2.539-3.982-4.11-6.971-4.11H382c0,0-0.021,0.004-0.034,0.004h-21.05
    c-1.497,0-2.708-1.213-2.708-2.702v-5.758c0-1.491,1.211-2.702,2.708-2.702h21.05c1.495,0,2.714,1.211,2.714,2.702v2.326h10.604
    v-5.49c0-4.479-3.582-8.106-8.005-8.106h-31.677c-4.418,0-8.004,3.629-8.004,8.106v12.088c0,4.475,3.586,8.103,8.004,8.103h26.361
    c1.496,0,2.709,1.215,2.709,2.702v5.893c0,1.489-1.213,2.699-2.709,2.699h-21.049c-1.498,0-2.712-1.21-2.712-2.699v-2.518h-10.604
    v5.686c0,4.474,3.586,8.101,8.004,8.101h31.672c4.428,0,8.01-3.627,8.01-8.101V89.515
    C395.283,87.273,394.343,85.688,394.246,85.515z"/>

<path d="M271.196,61.581h-35.921v22.053l4.038,4.032l7.153,7.155V70.955h18.644c4.666,0,8.454,3.77,8.454,8.423
    v13.454c0,4.652-3.79,8.423-8.454,8.423h-12.209l8.741,8.745h9.552c7.455,0,13.509-6.025,13.509-13.458V75.044
    C284.704,67.608,278.65,61.581,271.196,61.581z"/>
<path d="M209.423,0.084h-35.916v21.91l11.191,11.17V9.457h18.641c4.672,0,8.454,3.767,8.454,8.422v13.456
    c0,4.65-3.782,8.418-8.454,8.418h-12.036l8.768,8.748h9.354c7.456,0,13.506-6.027,13.506-13.458v-21.5
    C222.929,6.108,216.881,0.084,209.423,0.084z"/>

<path d="M138.522,28.421L74.685,92.013l17.722,17.646l92.302-0.072l17.643-17.575L138.522,28.421z M156.633,89.352
      l-36.193,0.032l-6.948-6.922l25.03-24.933l25.024,24.933L156.633,89.352z"/>
<path d="M109.95,0.161l-92.304,0.07L0,17.81l63.834,63.59l63.838-63.59L109.95,0.161z M63.834,52.293l-25.029-24.94
      l6.919-6.891l36.189-0.027l6.95,6.918L63.834,52.293z"/>
</g>
</svg>
